<?xml version="1.0" encoding="UTF-8" standalone="no"?>
<svg
   width="512"
   height="512"
   version="1.1"
   id="svg51"
   sodipodi:docname="wiploko.svg"
   inkscape:version="1.4 (e7c3feb100, 2024-10-09)"
   inkscape:export-filename="wiplogo3.png"
   inkscape:export-xdpi="96"
   inkscape:export-ydpi="96"
   xmlns:inkscape="http://www.inkscape.org/namespaces/inkscape"
   xmlns:sodipodi="http://sodipodi.sourceforge.net/DTD/sodipodi-0.dtd"
   xmlns="http://www.w3.org/2000/svg"
   xmlns:svg="http://www.w3.org/2000/svg">
  <sodipodi:namedview
     id="namedview51"
     pagecolor="#ffffff"
     bordercolor="#000000"
     borderopacity="0.25"
     inkscape:showpageshadow="2"
     inkscape:pageopacity="0.0"
     inkscape:pagecheckerboard="0"
     inkscape:deskcolor="#d1d1d1"
     inkscape:zoom="0.98700322"
     inkscape:cx="335.35858"
     inkscape:cy="313.57547"
     inkscape:window-width="2556"
     inkscape:window-height="1368"
     inkscape:window-x="0"
     inkscape:window-y="0"
     inkscape:window-maximized="0"
     inkscape:current-layer="g10"
     showgrid="false"
     showguides="true">
    <inkscape:grid
       id="grid11"
       units="px"
       originx="0"
       originy="0"
       spacingx="1"
       spacingy="1"
       empcolor="#0099e5"
       empopacity="0.30196078"
       color="#0099e5"
       opacity="0.14901961"
       empspacing="5"
       enabled="true"
       visible="false" />
    <sodipodi:guide
       position="-547.11068,262.76069"
       orientation="0,-1"
       id="guide12"
       inkscape:locked="false" />
    <sodipodi:guide
       position="261.39732,828.10839"
       orientation="1,0"
       id="guide13"
       inkscape:locked="false" />
  </sodipodi:namedview>
  <path
     fill="#ebebea"
     d="m 132.06139,34.917734 c 1.81255,-1.283197 4.13611,-2.306497 6.11697,-3.320284 5.2928,-2.725233 10.67501,-5.261689 16.14665,-7.609373 1.41373,-0.603845 2.8329,-1.195016 4.2575,-1.773514 1.42429,-0.57847 2.85363,-1.144204 4.28809,-1.69719 1.43481,-0.552997 2.87422,-1.093121 4.31819,-1.620409 1.44434,-0.527279 2.89325,-1.041623 4.34675,-1.543061 1.45351,-0.501427 2.91126,-0.989858 4.37326,-1.465263 1.46235,-0.475369 2.92879,-0.937696 4.39929,-1.386954 1.47049,-0.449213 2.94491,-0.885283 4.42324,-1.308188 1.47833,-0.422903 2.9604,-0.832574 4.44621,-1.229015 1.48546,-0.396467 2.97449,-0.779624 4.4671,-1.149476 1.4926,-0.369889 2.98844,-0.726412 4.48749,-1.0695955 1.49874,-0.343158 3.00052,-0.672921 4.50537,-0.989319 1.50484,-0.316353 3.01242,-0.619261 4.5227,-0.908711 1.51028,-0.28945 3.02312,-0.565409 4.5385,-0.827858 1.51506,-0.26245 3.03247,-0.511354 4.55227,-0.746704 1.51982,-0.235377 3.04149,-0.457153 4.56503,-0.665339 1.52388,-0.208214 3.04931,-0.402801 4.57626,-0.583771 1.52728,-0.180977 3.05593,-0.348312 4.58594,-0.502001 1.53034,-0.153664 3.06187,-0.2936825 4.59459,-0.4200395 1.53273,-0.126329 3.06632,-0.238987 4.60074,-0.337965 1.53477,-0.09899 3.07022,-0.184248 4.60633,-0.255792 1.53646,-0.07159 3.07328,-0.129429 4.61042,-0.17356 1.53714,-0.0441 3.07463,-0.07456 4.61245,-0.09118 1.53784,-0.01662 3.07564,-0.01958 4.61349,-0.0093 1.53817,0.01069 3.07581,0.03521 4.61296,0.07348 1.5375,0.03817 3.07445,0.09017 4.61094,0.155756 1.53646,0.06566 3.07224,0.145022 4.60735,0.238081 1.53509,0.09305 3.06918,0.199797 4.60225,0.320251 1.53341,0.120454 3.06545,0.25458 4.59613,0.4023785 1.53069,0.147789 3.06,0.30923 4.58798,0.484298 1.52763,0.175114 3.05373,0.363834 4.57828,0.566173 1.52457,0.202303 3.04709,0.418215 4.56758,0.647725 1.52085,0.229529 3.03927,0.472585 4.55534,0.729206 16.73979,2.746736 33.51885,7.0694005 49.2927,13.3527825 43.71889,17.467763 77.40044,41.198206 106.53837,78.132284 1.69219,2.135713 3.3485,4.298393 4.96895,6.488023 1.62079,2.18999 3.20502,4.40593 4.75271,6.6478 1.54769,2.24189 3.05814,4.50872 4.53136,6.80045 1.47289,2.29141 2.90752,4.60639 4.30391,6.94497 1.39672,2.33855 2.75452,4.69932 4.07339,7.08232 1.31886,2.38301 2.59811,4.78721 3.83776,7.21261 1.23965,2.42506 2.43883,4.86978 3.59754,7.33419 1.15908,2.4644 2.27719,4.94712 3.35431,7.44818 0.82926,1.96135 1.63421,3.93237 2.41486,5.91306 0.78098,1.98102 1.53747,3.97103 2.26949,5.97004 0.73237,1.99933 1.43991,4.00733 2.12263,6.02397 0.68306,2.01664 1.3413,4.04126 1.97473,6.07384 0.63308,2.0326 1.24135,4.07248 1.82479,6.11965 0.58344,2.04751 1.14173,4.1018 1.67484,6.16288 0.53313,2.06109 1.04075,4.12828 1.52288,6.20156 0.48246,2.0733 0.93941,4.15235 1.37087,6.23718 0.43147,2.08449 0.83742,4.1739 1.21787,6.26822 0.37912,2.09467 0.73356,4.1934 1.06336,6.2962 0.3298,2.10315 0.63241,4.21003 0.90782,6.32062 0.2788,2.11062 0.53041,4.22411 0.75479,6.34048 0.22781,2.11671 0.42842,4.23579 0.60181,6.35725 0.17341,2.12146 0.31961,4.24479 0.43861,6.36998 0.12239,2.12486 0.2193,4.25107 0.29071,6.37863 0.0681,2.12756 0.11049,4.25547 0.12749,6.38373 0.017,2.12858 0.009,4.25699 -0.0256,6.38525 -0.0341,2.12824 -0.0952,4.2558 -0.18359,6.38269 -0.085,2.12654 -0.1972,4.25191 -0.33662,6.3761 -0.13939,2.12383 -0.30429,4.2458 -0.49469,6.3659 -0.19039,2.12008 -0.408,4.23749 -0.6528,6.35216 -0.2414,2.11466 -0.51002,4.22613 -0.80582,6.33437 -0.2924,2.10824 -0.61199,4.21239 -0.95879,6.31247 -0.34679,2.10043 -0.71858,4.19629 -1.11537,6.28757 -0.39713,2.09126 -0.81993,4.17746 -1.26838,6.25854 -0.44845,2.08111 -0.92242,4.15626 -1.42189,6.22546 -0.49945,2.06957 -1.02409,4.13269 -1.57386,6.18936 -0.54978,2.05634 -1.12472,4.10587 -1.72482,6.14864 -0.60011,2.04276 -1.22504,4.07774 -1.87477,6.10488 -0.65007,2.0275 -1.32482,4.04669 -2.0242,6.05757 -0.69905,2.01088 -1.42291,4.01294 -2.1716,6.00616 -0.74834,1.99324 -1.521,3.97716 -2.31795,5.95173 -0.76807,1.88063 -1.55907,3.75157 -2.37304,5.61286 -0.81429,1.86127 -1.6512,3.71222 -2.51072,5.5528 -0.85987,1.84058 -1.74235,3.67031 -2.64744,5.48919 -0.90508,1.81888 -1.83244,3.6264 -2.78207,5.42256 -0.94926,1.79615 -1.92084,3.58043 -2.91464,5.35283 -0.99349,1.77242 -2.0089,3.53227 -3.04625,5.27958 -1.03701,1.74731 -2.09542,3.48155 -3.17526,5.20273 -1.07985,1.72119 -2.18096,3.42897 -3.3033,5.12337 -1.122,1.69438 -2.26475,3.37469 -3.42822,5.04093 -1.16348,1.6659 -2.34736,3.31754 -3.55166,4.95494 -1.20427,1.63706 -2.42863,3.25902 -3.67303,4.86587 -1.2444,1.60688 -2.50855,3.19832 -3.79238,4.77431 -1.2835,1.576 -2.58639,3.13607 -3.90865,4.68019 -1.32227,1.54376 -2.66324,3.07108 -4.02289,4.58197 -1.36001,1.5112 -2.73838,3.00528 -4.1351,4.48224 -1.39673,1.47728 -2.81147,2.93709 -4.24423,4.37946 -1.43278,1.44234 -2.88322,2.86671 -4.35136,4.2731 -1.46777,1.40674 -2.95271,2.79532 -4.45485,4.16575 -1.50248,1.3701 -3.02142,2.72154 -4.55687,4.05434 -1.53578,1.33309 -3.08772,2.64706 -4.65579,3.94184 -1.56777,1.29447 -3.15147,2.56975 -4.75119,3.82587 -1.59938,1.25578 -3.21403,2.49171 -4.84399,3.7078 -1.63033,1.21608 -3.27524,2.412 -4.93479,3.58772 -1.65954,1.17572 -3.33337,2.33093 -5.02147,3.4656 -1.68811,1.13469 -3.38983,2.24833 -5.10513,3.34095 -1.71566,1.09296 -3.44455,2.16455 -5.18671,3.21476 -1.74182,1.0502 -3.49641,2.07888 -5.26374,3.08603 -1.76765,1.00747 -3.54722,1.9929 -5.33869,2.95627 -1.7918,0.96339 -3.59534,1.9047 -5.41061,2.82399 -1.81492,0.91892 -3.6409,1.81564 -5.47794,2.69014 -1.83702,0.87416 -3.68458,1.72559 -5.54271,2.55431 -1.8581,0.82904 -3.72624,1.63501 -5.60439,2.41793 -1.91931,0.81887 -3.84831,1.61399 -5.787,2.38539 -1.93868,0.7717 -3.88672,1.51934 -5.84412,2.24288 -1.95738,0.72356 -3.92327,1.42284 -5.89764,2.09789 -1.97474,0.67538 -3.95729,1.32634 -5.94766,1.95288 -1.99071,0.6262 -3.98889,1.22796 -5.99456,1.8053 -2.00533,0.57735 -4.01761,1.12992 -6.03687,1.65775 -2.01928,0.52783 -4.04466,1.03071 -6.07617,1.50866 -2.03152,0.47796 -4.0688,0.93099 -6.11188,1.35908 -2.04272,0.42775 -4.09036,0.83108 -6.14297,1.20999 -2.05291,0.37652 -4.1101,0.72761 -6.17152,1.05325 -2.06142,0.32905 -4.12659,0.63096 -6.19551,0.90571 -2.06891,0.27818 -4.14087,0.52921 -6.21589,0.75307 -2.07503,0.22388 -4.15262,0.42402 -6.23273,0.60041 -2.0798,0.17301 -4.16162,0.32057 -6.24549,0.44268 -2.08353,0.12212 -4.16841,0.2205 -6.25467,0.29512 -2.08591,0.0712 -4.17249,0.11702 -6.25976,0.13737 -2.08727,0.0204 -4.17454,0.0136 -6.26182,-0.0202 -2.08691,-0.0305 -4.17317,-0.0864 -6.25872,-0.16792 -2.08593,-0.0814 -4.17029,-0.18996 -6.25316,-0.32565 -2.08316,-0.1323 -4.16432,-0.29003 -6.24343,-0.47321 -2.0791,-0.18657 -4.15548,-0.39688 -6.22917,-0.63095 -2.07399,-0.23745 -4.14477,-0.50034 -6.21234,-0.78867 -2.0672,-0.28493 -4.13067,-0.59702 -6.19038,-0.93623 -2.05974,-0.33582 -4.11504,-0.6988 -6.16593,-1.0889 -2.05087,-0.38637 -4.09649,-0.79886 -6.13685,-1.23745 -2.04069,-0.43828 -4.07559,-0.90164 -6.10472,-1.39012 -2.02914,-0.48847 -4.0518,-1.00169 -6.06801,-1.53969 -2.01654,-0.53833 -4.02612,-1.10127 -6.02873,-1.68879 -2.00226,-0.58753 -3.99722,-1.19965 -5.98487,-1.83635 -1.98731,-0.63672 -3.96646,-1.29786 -5.93744,-1.98343 -1.97097,-0.68522 -3.9333,-1.39469 -5.88695,-2.12841 -1.95332,-0.73339 -3.89745,-1.49087 -5.83239,-2.27241 -1.90503,-0.76223 -3.80053,-1.54751 -5.68651,-2.35586 -1.88565,-0.80868 -3.76129,-1.64028 -5.62686,-2.49478 -1.86525,-0.85447 -3.71978,-1.73153 -5.5636,-2.63112 -1.84383,-0.89996 -3.67625,-1.82229 -5.49731,-2.76701 -1.82105,-0.9447 -3.63037,-1.91164 -5.42796,-2.9008 -1.79724,-0.98881 -3.58209,-1.99968 -5.3545,-3.03261 -1.77243,-1.03256 -3.53194,-2.08685 -5.27852,-3.16285 -1.74659,-1.07565 -3.47958,-2.17268 -5.19896,-3.29107 -1.71973,-1.11808 -3.42535,-2.25715 -5.11685,-3.41727 -1.69151,-1.16013 -3.36857,-2.34061 -5.03118,-3.54142 -1.66227,-1.20118 -3.30974,-2.42254 -4.94243,-3.66405 -1.63235,-1.2412 -3.249218,-2.50239 -4.850619,-3.78362 -1.6014,-1.28088 -3.18683,-2.58127 -4.75628,-3.90117 -1.56944,-1.31954 -3.12239,-2.65826 -4.65886,-4.01614 -1.5368,-1.3579 -3.05644,-2.73443 -4.558909,-4.12964 -1.502799,-1.39486 -2.988095,-2.80803 -4.455879,-4.23954 -1.468129,-1.43149 -2.918239,-2.88061 -4.350312,-4.34738 -1.432423,-1.46678 -2.846485,-2.95102 -4.242189,-4.45273 -1.395702,-1.50138 -2.772712,-3.01972 -4.13103,-4.55501 -1.3583,-1.53529 -2.697558,-3.08687 -4.017789,-4.65473 -1.320224,-1.5682 -2.621053,-3.15217 -3.902526,-4.75192 -1.281124,-1.59975 -2.542529,-3.21509 -3.784209,-4.84605 -1.241359,-1.6306 -2.46264,-3.27631 -3.663855,-4.93711 -1.2009,-1.66047 -2.381374,-3.33553 -3.541458,-5.02516 -1.159806,-1.68964 -2.2987,-3.3932 -3.416656,-5.11065 -1.117965,-1.71746 -2.214616,-3.44831 -3.289977,-5.19256 -1.075389,-1.74425 -2.129166,-3.50155 -3.161348,-5.27194 -1.032148,-1.77003 -2.042367,-3.55244 -3.03068,-5.34724 -0.988313,-1.79479 -1.954412,-3.60145 -2.898296,-5.42 -0.943877,-1.81853 -1.865261,-3.64828 -2.764163,-5.48921 -0.898856,-1.84094 -1.774933,-3.6927 -2.62823,-5.55534 -0.853343,-1.8623 -1.683645,-3.73494 -2.490897,-5.61794 -0.810129,-1.95253 -1.59656,-3.91439 -2.359269,-5.88556 -0.762728,-1.97154 -1.501535,-3.9519 -2.216421,-5.94107 -0.714922,-1.98916 -1.405701,-3.98647 -2.072351,-5.99192 -0.666633,-2.00579 -1.308941,-4.01936 -1.926934,-6.04077 -0.618028,-2.02105 -1.211536,-4.04924 -1.78053,-6.08452 -0.568984,-2.03564 -1.113321,-4.07772 -1.633018,-6.12625 -0.519689,-2.04854 -1.01456,-4.103 -1.4846117,-6.1634 -0.470025,-2.0604 -0.915114,-4.12622 -1.335287,-6.1975 -0.420146,-2.07091 -0.8152119,-4.14674 -1.1851989,-6.22751 -0.369988,-2.08074 -0.714814,-4.16557 -1.034482,-6.25447 -0.319642,-2.0889 -0.613996,-4.18134 -0.883074,-6.27738 -0.269115,-2.09601 -0.512854,-4.19492 -0.731236,-6.29671 -0.21838,-2.1018 -0.411351,-4.20595 -0.578909,-6.31248 -0.16755,-2.10654 -0.309635,-4.21476 -0.426254,-6.32468 -0.116656,-2.10995 -0.207791,-4.22105 -0.273417,-6.33335 -0.06567,-2.11197 -0.105777,-4.22444 -0.120356,-6.33742 -0.01464,-2.11332 -0.0036,-4.2263 0.0327,-6.33893 0.03647,-2.11299 0.09838,-4.22514 0.185848,-6.33641 0.08748,-2.11129 0.200388,-4.22121 0.338843,-6.32978 0.138411,-2.10858 0.302279,-4.21528 0.491593,-6.32013 0.189341,-2.1045 0.404049,-4.20661 0.644132,-6.30636 0.24011,-2.09942 0.505523,-4.19561 0.796258,-6.28857 0.290736,-2.09332 0.60672,-4.18271 0.947945,-6.26822 0.341191,-2.0855 0.70753,-4.16661 1.099004,-6.24329 0.3914729,-2.07668 0.8079899,-4.14845 1.2495499,-6.21529 0.441525,-2.0665 0.907947,-4.12758 1.3992507,-6.18324 0.491295,-2.05532 1.007373,-4.10453 1.548207,-6.14762 0.540806,-2.04309 1.106207,-4.07942 1.69621,-6.10897 0.590058,-2.02952 1.204504,-4.05159 1.843363,-6.0662 0.638831,-2.01494 1.301916,-4.02175 1.989263,-6.02041 0.687355,-1.99867 1.398712,-3.98886 2.134106,-5.97056 0.735419,-1.98171 1.494662,-3.95425 2.277715,-5.91764 0.659494,-1.62925 1.336437,-3.25105 2.030781,-4.86537 0.694344,-1.61469 1.405952,-3.22173 2.134815,-4.82113 0.728891,-1.59942 1.474874,-3.19085 2.237943,-4.7743 0.763104,-1.58347 1.543114,-3.15862 2.340037,-4.72545 0.796933,-1.56684 1.610608,-3.12488 2.441027,-4.67408 0.830419,-1.54953 1.677384,-3.08992 2.54093,-4.62116 0.863492,-1.5312 1.74336,-3.05293 2.639611,-4.56515 0.896206,-1.51258 1.808572,-3.01532 2.73708,-4.5082 0.928499,-1.49291 1.872967,-2.97561 2.833363,-4.44814 0.960368,-1.47289 1.9365,-2.93526 2.928379,-4.38711 0.991779,-1.45185 1.999045,-2.89282 3.02176,-4.32296 1.022734,-1.43014 2.060756,-2.84926 3.114083,-4.25734 1.053319,-1.4081 2.121602,-2.80482 3.20485,-4.190173 1.083239,-1.38504 2.181272,-2.75852 3.29409,-4.12048 1.112828,-1.361608 2.240099,-2.711178 3.381822,-4.048718 1.142066,-1.33786 2.298243,-2.66318 3.468522,-3.97596 1.170296,-1.31277 2.354508,-2.61298 3.552677,-3.90065 1.198169,-1.28733 2.410101,-2.56194 3.635802,-3.82383 1.225359,-1.26155 2.464326,-2.50986 3.716885,-3.74494 1.252567,-1.2351 2.518217,-2.45662 3.796961,-3.66457 1.278735,-1.2083 2.57023,-2.4025 3.874486,-3.58263 1.30423,-1.18048 2.62105,-2.34687 3.95047,-3.49921 1.32939,-1.15232 2.67122,-2.29021 4.02544,-3.4137 1.35389,-1.12347 2.71968,-2.23237 4.09735,-3.32668 1.377691,-1.09433 2.766931,-2.17387 4.167739,-3.23867 1.40081,-1.06447 2.813,-2.114 4.23658,-3.14862 1.4236,-1.03427 2.85806,-2.05327 4.3034,-3.057019 1.44534,-1.003742 2.90124,-1.991866 4.36765,-2.964362 1.46677,-0.972566 2.94374,-1.92935 4.43091,-2.870335 1.48716,-0.940958 2.98419,-1.865908 4.49107,-2.774879 1.50723,-0.908962 3.02398,-1.801692 4.55024,-2.678199 1.52626,-0.87651 3.06171,-1.736589 4.60634,-2.580248 z"
     id="path5-3"
     style="display:inline;fill:#999999;fill-opacity:1;stroke:#000000;stroke-width:6.45582;stroke-dasharray:none"
     sodipodi:nodetypes="ccccccscsscscsscssscssssssssssscsscccssscscccccccsscscsccsccsscssccscssssccccccscccscccsccscsccssscsssccccccccsccsssccccscscscscccccccscscccccccsccccscscccccccsccsscsscssscccscccsssssssssssssscccssscsccssccscscccsccsscccscssccscsccscccscc" />
  <g
     id="g9"
     transform="matrix(0.6763254,0,0,0.67630837,12.521857,12.5227)"
     style="stroke:#000000;stroke-width:0.999895;stroke-dasharray:none">
    <path
       fill="#ebebea"
       d="m 208.00149,88.864388 c 2.22292,-1.573703 5.07256,-2.828687 7.50187,-4.071987 6.4911,-3.342226 13.09186,-6.45294 19.80227,-9.332143 1.7338,-0.740547 3.47427,-1.465555 5.22141,-2.175026 1.74673,-0.709439 3.4997,-1.40325 5.25892,-2.081435 1.75965,-0.678184 3.52493,-1.340608 5.29584,-1.987271 1.77132,-0.64665 3.54827,-1.277451 5.33085,-1.892402 1.78257,-0.614951 3.57037,-1.21395 5.36338,-1.796998 1.79342,-0.583003 3.59185,-1.149988 5.39529,-1.700955 1.80341,-0.550929 3.61164,-1.085718 5.42467,-1.604369 1.81303,-0.518644 3.63063,-1.021066 5.45282,-1.507267 1.82178,-0.486233 3.64792,-0.956142 5.47845,-1.409727 1.83055,-0.453624 3.66505,-0.890876 5.5035,-1.311758 1.83804,-0.420837 3.67983,-0.825267 5.52537,-1.213292 1.84555,-0.387967 3.69442,-0.759445 5.54664,-1.114435 1.85221,-0.354983 3.70755,-0.693411 5.56603,-1.015283 1.85806,-0.321873 3.71902,-0.627125 5.58291,-0.915759 1.8639,-0.288672 3.73008,-0.560661 5.59855,-0.815968 1.8689,-0.255357 3.73968,-0.494003 5.61233,-0.715937 1.87306,-0.221948 3.74779,-0.427168 5.6242,-0.61566 1.87681,-0.188454 3.75509,-0.360169 5.63482,-0.515144 1.87975,-0.154923 3.76053,-0.293078 5.64235,-0.414465 1.88223,-0.121399 3.76529,-0.225966 5.64921,-0.313701 1.88433,-0.08778 3.76907,-0.158736 5.65423,-0.21285 1.88516,-0.05411 3.77073,-0.09142 5.65671,-0.111896 1.886,-0.02048 3.772,-0.0241 5.65799,-0.01087 1.8864,0.01323 3.77219,0.04328 5.65734,0.09014 1.88557,0.04686 3.77052,0.110538 5.65486,0.191017 1.88431,0.08053 3.7678,0.177863 5.65046,0.291982 1.88265,0.114111 3.76407,0.24503 5.64422,0.392755 1.88056,0.147732 3.75946,0.312223 5.6367,0.493472 1.87723,0.181263 3.7528,0.379247 5.6267,0.593951 1.87347,0.214748 3.74508,0.446199 5.61481,0.694352 1.86972,0.248114 3.73695,0.512908 5.60168,0.794382 1.86515,0.28148 3.72738,0.579578 5.58667,0.894297 20.52972,3.368583 41.10759,8.669916 60.45264,16.375846 53.61692,21.422454 94.92399,50.525446 130.65881,95.821356 2.07529,2.61925 4.1066,5.27156 6.09391,7.95693 1.98775,2.68579 3.93067,5.40341 5.82875,8.15284 1.89807,2.74946 3.7505,5.52949 5.55727,8.34009 1.80634,2.81017 3.56578,5.64927 5.27831,8.51728 1.71295,2.86801 3.37814,5.76326 4.99561,8.68577 1.61745,2.9225 3.18632,5.87101 4.70663,8.84551 1.52031,2.9741 2.99098,5.97231 4.41204,8.99466 1.42149,3.02235 2.79272,6.06717 4.1137,9.13444 1.01702,2.40542 2.00422,4.82267 2.96159,7.25178 0.9578,2.42954 1.88556,4.87009 2.78332,7.32166 0.89818,2.45198 1.76592,4.91459 2.60321,7.3878 0.8377,2.4732 1.64496,4.9562 2.4218,7.44897 0.77641,2.49276 1.52239,4.99447 2.23791,7.50512 0.71554,2.51107 1.40022,5.03044 2.05405,7.55815 0.65382,2.5277 1.27636,5.06291 1.86764,7.60559 0.59169,2.54269 1.15211,5.09245 1.68125,7.64925 0.52915,2.55643 1.02702,5.11888 1.49361,7.68733 0.46494,2.5689 0.89963,5.14279 1.30411,7.72167 0.40447,2.57934 0.77558,5.1632 1.11333,7.75162 0.34192,2.58844 0.65049,5.18041 0.92569,7.77596 0.27938,2.59591 0.5254,5.19475 0.73806,7.79653 0.21266,2.60179 0.39196,5.20581 0.5379,7.8121 0.15011,2.60597 0.26895,5.21355 0.35652,7.82278 0.0834,2.60928 0.13552,5.21894 0.15636,7.82898 0.0209,2.61048 0.0104,5.22078 -0.0313,7.83088 -0.0417,2.61011 -0.11671,5.21935 -0.22517,7.82774 -0.10425,2.608 -0.24185,5.21454 -0.41282,7.81963 -0.17096,2.60469 -0.37319,5.20707 -0.60669,7.80713 -0.23351,2.60012 -0.50038,5.19691 -0.8006,7.79035 -0.29606,2.59343 -0.62548,5.1829 -0.98824,7.76839 -0.35861,2.58558 -0.75057,5.16611 -1.17588,7.74161 -0.42531,2.57602 -0.88127,5.14638 -1.36789,7.71108 -0.48704,2.56477 -1.00555,5.12327 -1.55555,7.6755 -0.54998,2.55224 -1.13125,5.09719 -1.7438,7.63487 -0.61254,2.53812 -1.25594,5.06833 -1.93019,7.59061 -0.67425,2.5219 -1.37935,5.03548 -2.11532,7.54073 -0.73597,2.50524 -1.50237,5.00091 -2.29921,7.48702 -0.79726,2.48655 -1.62476,4.96289 -2.48249,7.42903 -0.85731,2.46614 -1.74505,4.92143 -2.66324,7.36588 -0.91777,2.44452 -1.86535,4.87759 -2.84275,7.29921 -0.94195,2.3064 -1.91205,4.60094 -2.91029,6.88362 -0.99867,2.28268 -2.02505,4.55268 -3.07918,6.80998 -1.05453,2.25731 -2.13679,4.5013 -3.24679,6.73196 -1.11,2.23067 -2.24731,4.4474 -3.41193,6.65022 -1.16421,2.20281 -2.35572,4.39103 -3.57454,6.56465 -1.2184,2.17369 -2.46371,4.33199 -3.73592,6.4749 -1.27178,2.14291 -2.56983,4.26979 -3.89415,6.38065 -1.32433,2.11087 -2.67472,4.20529 -4.05116,6.28327 -1.37603,2.07799 -2.77748,4.13871 -4.20438,6.18216 -1.4269,2.04308 -2.87881,4.06866 -4.35575,6.07677 -1.47694,2.00772 -2.97848,3.9969 -4.50462,5.96754 -1.52615,1.97065 -3.07647,3.92238 -4.65098,5.85519 -1.57408,1.9328 -3.17194,3.84606 -4.79358,5.73976 -1.62162,1.89326 -3.26619,3.76636 -4.93367,5.6193 -1.66791,1.85339 -3.35834,3.68576 -5.0713,5.49711 -1.71294,1.81167 -3.44798,3.60194 -5.20513,5.37082 -1.75714,1.76894 -3.53598,3.51581 -5.3365,5.24062 -1.80009,1.72519 -3.62123,3.42815 -5.46344,5.10889 -1.84263,1.6803 -3.70548,3.3377 -5.58856,4.97221 -1.88348,1.63496 -3.78677,3.24639 -5.70988,4.83428 -1.92269,1.58752 -3.86497,3.15154 -5.82684,4.69207 -1.96147,1.54008 -3.9417,3.05581 -5.94069,4.54717 -1.99942,1.49144 -4.01676,2.9581 -6.05202,4.4 -2.03527,1.44196 -4.08805,2.8587 -6.15833,4.25024 -2.07031,1.39154 -4.15729,2.75731 -6.26093,4.09734 -2.10408,1.34041 -4.22442,2.65458 -6.361,3.94253 -2.13617,1.28801 -4.28799,2.54961 -6.45544,3.78477 -2.16788,1.23554 -4.35033,2.44407 -6.54738,3.62557 -2.19748,1.18143 -4.40935,2.33587 -6.6356,3.46331 -2.22583,1.12694 -4.4652,2.22666 -6.71814,3.29917 -2.25293,1.07205 -4.51878,2.11627 -6.79757,3.13262 -2.27879,1.0168 -4.56988,2.00527 -6.87325,2.96541 -2.35386,1.00421 -4.71958,1.97932 -7.09718,2.92535 -2.37761,0.94647 -4.76668,1.86337 -7.16723,2.7507 -2.40055,0.88733 -4.81152,1.74495 -7.2329,2.57281 -2.42181,0.82832 -4.85321,1.62666 -7.29421,2.39501 -2.4414,0.76797 -4.89197,1.506 -7.35173,2.21407 -2.45934,0.70807 -4.92722,1.38577 -7.40365,2.03312 -2.47643,0.64729 -4.96037,1.26401 -7.45181,1.85018 -2.49145,0.58617 -4.99,1.14176 -7.49561,1.66675 -2.5052,0.52462 -5.01644,1.01926 -7.53374,1.48389 -2.51771,0.46179 -5.04064,0.89239 -7.56878,1.2918 -2.52813,0.40354 -5.06085,0.77379 -7.59817,1.11075 -2.53731,0.34116 -5.07837,0.649 -7.62318,0.92351 -2.54484,0.27459 -5.09278,0.52004 -7.64384,0.73637 -2.55065,0.21221 -5.10381,0.39318 -7.65948,0.54293 -2.55523,0.14976 -5.11214,0.27039 -7.67072,0.36189 -2.55816,0.0874 -5.11715,0.14356 -7.67698,0.16855 -2.55984,0.0255 -5.11966,0.0172 -7.67948,-0.0248 -2.55943,-0.0375 -5.118,-0.10617 -7.67573,-0.20594 -2.55816,-0.0998 -5.11445,-0.233 -7.66886,-0.39947 -2.55483,-0.16222 -5.10715,-0.35562 -7.65696,-0.58022 -2.54982,-0.22886 -5.09631,-0.48682 -7.63946,-0.77386 -2.54356,-0.29124 -5.08317,-0.61364 -7.61883,-0.9672 -2.53522,-0.34949 -5.06585,-0.7322 -7.5919,-1.14814 -2.52606,-0.41194 -5.04669,-0.8571 -7.56189,-1.33548 -2.51521,-0.47387 -5.02396,-0.97977 -7.52624,-1.51767 -2.50271,-0.53746 -4.99832,-1.10572 -7.48683,-1.70481 -2.48853,-0.59901 -4.96914,-1.22843 -7.44183,-1.88823 -2.47309,-0.66025 -4.93763,-1.35065 -7.39362,-2.07118 -2.45559,-0.72054 -4.90222,-1.47124 -7.33988,-2.25213 -2.43722,-0.78081 -4.86445,-1.59165 -7.28168,-2.43249 -2.41721,-0.84034 -4.82381,-1.71044 -7.21976,-2.6103 -2.39554,-0.89935 -4.77982,-1.8283 -7.15285,-2.78685 -2.33632,-0.93477 -4.66097,-1.89784 -6.97396,-2.8892 -2.31255,-0.99181 -4.61282,-2.01169 -6.90078,-3.05965 -2.28753,-1.0479 -4.56193,-2.12348 -6.82319,-3.22677 -2.26129,-1.10366 -4.5086,-2.23479 -6.74192,-3.3934 -2.23333,-1.15861 -4.45228,-2.34446 -6.65686,-3.55756 -2.20414,-1.21272 -4.39306,-2.45246 -6.56675,-3.71923 -2.17372,-1.26626 -4.33159,-2.55924 -6.47361,-3.87891 -2.14202,-1.31917 -4.26735,-2.66454 -6.376,-4.03611 -2.10907,-1.37125 -4.20085,-2.76825 -6.27532,-4.19101 -2.07446,-1.42275 -4.13121,-2.87047 -6.17023,-4.34314 -2.03861,-1.47312 -4.05907,-2.97097 -6.06139,-4.49357 -2.00192,-1.52221 -3.98486,-3.06897 -5.94882,-4.64027 -1.96397,-1.57092 -3.90834,-3.16572 -5.83311,-4.7844 -1.92477,-1.61829 -3.82932,-3.26012 -5.71364,-4.92547 -1.88473,-1.66522 -3.74842,-3.3534 -5.59105,-5.06454 -1.84304,-1.71069 -3.66461,-3.44379 -5.4647,-5.19931 -1.80051,-1.75559 -3.57893,-3.53279 -5.33524,-5.33162 -1.75673,-1.79883 -3.49093,-3.61911 -5.20262,-5.46086 -1.7117,-1.84131 -3.40047,-3.70341 -5.0663,-5.5863 -1.66582,-1.88282 -3.3083,-3.78565 -4.92742,-5.70848 -1.61912,-1.92327 -3.21447,-3.86587 -4.78608,-5.82781 -1.57116,-1.96194 -3.11815,-3.94298 -4.64094,-5.94313 -1.52239,-1.99983 -3.02018,-4.01814 -4.49335,-6.05491 -1.47277,-2.0364 -2.92052,-4.0907 -4.34325,-6.1629 -1.4224,-2.07213 -2.81913,-4.16134 -4.190195,-6.26762 -1.371065,-2.10629 -2.716007,-4.229 -4.034826,-6.36817 -1.318864,-2.13916 -2.611224,-4.29433 -3.87708,-6.46555 -1.265823,-2.17076 -2.504771,-4.35669 -3.716843,-6.55778 -1.212064,-2.20116 -2.396888,-4.41685 -3.554469,-6.64707 -1.157569,-2.23028 -2.287559,-4.4743 -3.389969,-6.73205 -1.10236,-2.25769 -2.176785,-4.5287 -3.223275,-6.81304 -1.046534,-2.28395 -2.064816,-4.58056 -3.054845,-6.88982 -0.993532,-2.3946 -1.958001,-4.80061 -2.893406,-7.21803 -0.935411,-2.41794 -1.841486,-4.84666 -2.718223,-7.28615 -0.876776,-2.43949 -1.72395,-4.889 -2.541523,-7.34852 -0.817568,-2.45985 -1.605298,-4.92929 -2.363193,-7.40833 -0.757951,-2.47867 -1.485831,-4.96604 -2.18364,-7.46213 -0.697808,-2.49647 -1.365389,-5.00085 -2.002743,-7.51316 -0.637347,-2.51236 -1.244257,-5.03198 -1.82073,-7.55884 -0.576435,-2.52687 -1.122302,-5.06041 -1.637601,-7.60063 -0.515261,-2.53971 -0.999771,-5.0855 -1.453527,-7.63735 -0.453751,-2.55185 -0.876647,-5.1087 -1.26869,-7.67054 -0.392002,-2.56177 -0.753002,-5.12794 -1.083,-7.69849 -0.330039,-2.57055 -0.628971,-5.14467 -0.896793,-7.72234 -0.267823,-2.57761 -0.504479,-5.15814 -0.709969,-7.7416 -0.205488,-2.58347 -0.379743,-5.16899 -0.522761,-7.75658 -0.143067,-2.58766 -0.254839,-5.17674 -0.335319,-7.76727 -0.08051,-2.59007 -0.129721,-5.18081 -0.147605,-7.77222 -0.01794,-2.59172 -0.0046,-5.18307 0.04011,-7.77403 0.04468,-2.59135 0.120652,-5.18168 0.227921,-7.77099 0.107243,-2.58924 0.245763,-5.17683 0.415559,-7.76278 0.169748,-2.586 0.370711,-5.16968 0.60289,-7.75104 0.232213,-2.58092 0.495533,-5.15895 0.789962,-7.73407 0.29447,-2.57475 0.619984,-5.14552 0.97654,-7.71232 0.356556,-2.56725 0.744077,-5.12969 1.162562,-7.68733 0.418436,-2.55765 0.867708,-5.10992 1.347818,-7.65681 0.480102,-2.54684 0.990919,-5.08763 1.532449,-7.62239 0.541486,-2.53437 1.113498,-5.06208 1.716036,-7.58314 0.602533,-2.52063 1.235441,-5.03377 1.898727,-7.53943 0.663247,-2.50566 1.356662,-5.003 2.080243,-7.49203 0.723626,-2.48902 1.47719,-4.96888 2.260691,-7.4396 0.783452,-2.47114 1.596663,-4.93228 2.439634,-7.38343 0.842964,-2.45116 1.715387,-4.89192 2.617268,-7.32227 0.901919,-2.43037 1.833051,-4.8495 2.793396,-7.25739 0.808811,-1.99812 1.638993,-3.98709 2.490549,-5.9669 0.851549,-1.98025 1.724261,-3.95113 2.618136,-5.91263 0.893925,-1.9615 1.808797,-3.91324 2.744615,-5.85521 0.935864,-1.94196 1.892472,-3.87372 2.869828,-5.79529 0.977355,-1.92157 1.975246,-3.83233 2.993675,-5.73227 1.018428,-1.90037 2.057163,-3.7895 3.116206,-5.66739 1.058991,-1.87788 2.138065,-3.74411 3.23722,-5.5987 1.099117,-1.85503 2.218036,-3.69799 3.356756,-5.52887 1.138728,-1.83088 2.297012,-3.64928 3.474852,-5.45518 1.177792,-1.80635 2.374922,-3.5998 3.591372,-5.38035 1.21631,-1.78054 2.45161,-3.54776 3.70589,-5.30168 1.25427,-1.75392 2.52731,-3.49433 3.81911,-5.2212 1.29179,-1.72688 2.60193,-3.43982 3.93041,-5.13883 1.3285,-1.6986 2.67513,-3.38305 4.03989,-5.05335 1.36477,-1.66987 2.74726,-3.32499 4.14747,-4.96534 1.40063,-1.64075 2.81856,-3.26613 4.25379,-4.87611 1.43525,-1.60998 2.88758,-3.20456 4.35703,-4.78376 1.46943,-1.57877 2.95574,-3.14195 4.45894,-4.68954 1.50279,-1.54715 3.02226,-3.07809 4.55842,-4.59279 1.53614,-1.51472 3.08834,-3.01279 4.65659,-4.49422 1.56824,-1.48185 3.15213,-2.94643 4.75167,-4.39373 1.59951,-1.44774 3.21447,-2.8782 4.84487,-4.29141 1.63038,-1.41321 3.27597,-2.80873 4.93679,-4.18657 1.66042,-1.37784 3.33543,-2.7378 5.02503,-4.07985 1.68958,-1.34207 3.39335,-2.66604 5.1113,-3.9719 1.71796,-1.30546 3.44988,-2.59261 5.19575,-3.86146 1.74589,-1.26843 3.50512,-2.51814 5.27769,-3.74912 1.77258,-1.23099 3.55807,-2.44282 5.35649,-3.63549 1.79885,-1.19277 3.6102,-2.36616 5.43407,-3.52018 1.82387,-1.153989 3.65982,-2.28836 5.50787,-3.403113 1.84846,-1.114747 3.70859,-2.209593 5.58041,-3.28454 1.87182,-1.074939 3.75489,-2.129747 5.64922,-3.164422 z"
       id="path5-3-5"
       style="fill:#000000;fill-opacity:1;stroke:#000000;stroke-width:0.999895;stroke-dasharray:none"
       sodipodi:nodetypes="ccccccscsscsscscssscssssssssssscsscccssccscccccccsscscsccsccsscssccscssssccccccscccscccsccscsccssscssscsccccccsccsssccccscscccscccccccscssccccscsscccscscccccccscccscsscssscccscccsssssssssssssscccssscsscssccssscscsccsscccscssccscsccscscscc" />
    <path
       fill="#ebebea"
       d="m 210.45309,93.237559 c 2.18706,-1.548318 4.99075,-2.783066 7.38087,-4.006313 6.3864,-3.288313 12.8807,-6.34886 19.48288,-9.181622 1.70584,-0.728605 3.41824,-1.441922 5.1372,-2.139949 1.71855,-0.697997 3.44324,-1.380616 5.17409,-2.047858 1.73127,-0.667252 3.46808,-1.318987 5.21043,-1.955217 1.74274,-0.636221 3.49104,-1.256846 5.24487,-1.861888 1.75382,-0.605031 3.51277,-1.19437 5.27687,-1.768007 1.76449,-0.573606 3.53392,-1.131441 5.30826,-1.673524 1.77433,-0.542044 3.5534,-1.068209 5.33718,-1.578493 1.78379,-0.510275 3.57208,-1.004592 5.36488,-1.48295 1.79239,-0.478397 3.58907,-0.940729 5.39008,-1.386992 1.80102,-0.446314 3.60593,-0.876511 5.41474,-1.290603 1.80839,-0.414053 3.62048,-0.81196 5.43624,-1.193721 1.81579,-0.381713 3.63484,-0.747201 5.45719,-1.096465 1.82233,-0.349254 3.64775,-0.682226 5.47625,-0.998904 1.82809,-0.31668 3.65903,-0.617006 5.49287,-0.900991 1.83383,-0.284014 3.66991,-0.551616 5.50825,-0.802808 1.83875,-0.251232 3.67935,-0.486033 5.5218,-0.704384 1.84285,-0.218369 3.68735,-0.420279 5.53349,-0.60573 1.84654,-0.185419 3.69453,-0.35436 5.54394,-0.50684 1.84942,-0.152422 3.69987,-0.288354 5.55134,-0.407775 1.85187,-0.119442 3.70456,-0.222326 5.5581,-0.308641 1.85393,-0.08639 3.70827,-0.156179 5.56302,-0.209417 1.85476,-0.05323 3.70991,-0.08992 5.56548,-0.110095 1.85558,-0.02017 3.71116,-0.02371 5.56673,-0.01073 1.85598,0.01298 3.71135,0.0426 5.5661,0.08864 1.85515,0.04615 3.7097,0.108757 5.56364,0.187939 1.85393,0.0792 3.70704,0.174991 5.55933,0.287271 1.85229,0.112269 3.70336,0.241078 5.55319,0.386415 1.85022,0.145357 3.69881,0.307194 5.54578,0.485521 1.84695,0.178336 3.69227,0.373124 5.53594,0.584371 1.84326,0.211285 3.68468,0.439002 5.52426,0.68315 1.83955,0.244109 3.67667,0.504638 5.51133,0.781567 1.83506,0.27694 3.66725,0.570232 5.49655,0.879877 20.1986,3.314247 40.44457,8.530073 59.47761,16.111714 52.75211,21.076934 93.39294,49.710513 128.5514,94.275843 2.04181,2.577 4.04036,5.18653 5.99561,7.8286 1.9557,2.64247 3.86727,5.31626 5.73475,8.02134 1.86745,2.70511 3.69,5.44031 5.46763,8.20557 1.7772,2.76485 3.50826,5.55816 5.19317,8.37991 1.68533,2.82174 3.32366,5.6703 4.91504,8.54567 1.59137,2.87537 3.13493,5.77632 4.63072,8.70285 1.49578,2.92613 2.94273,5.87598 4.34087,8.84958 1.39857,2.9736 2.74768,5.96931 4.04735,8.98711 1.00063,2.36662 1.9719,4.74489 2.91383,7.13482 0.94235,2.39035 1.85514,4.79154 2.73842,7.20357 0.8837,2.41243 1.73745,4.83532 2.56123,7.26864 0.82419,2.43331 1.61842,4.87625 2.38274,7.32882 0.76389,2.45256 1.49784,4.91392 2.20181,7.38407 0.704,2.47057 1.37764,4.94931 2.02093,7.43625 0.64326,2.48693 1.25576,4.98125 1.83751,7.48292 0.58214,2.50168 1.13352,5.01031 1.65413,7.52587 0.52062,2.5152 1.01046,5.03632 1.46952,7.56334 0.45745,2.52747 0.88512,5.05985 1.28308,7.59713 0.39795,2.53774 0.76307,5.07992 1.09537,7.6266 0.3364,2.54669 0.64,5.09685 0.91076,7.65054 0.27488,2.55405 0.51692,5.11096 0.72615,7.67078 0.20923,2.55982 0.38565,5.12184 0.52923,7.6861 0.14769,2.56393 0.26462,5.12946 0.35077,7.6966 0.082,2.5672 0.13334,5.13477 0.15384,7.70271 0.0205,2.56837 0.0103,5.13657 -0.0308,7.70457 -0.0411,2.56802 -0.11484,5.13517 -0.22154,7.70149 -0.10258,2.56594 -0.23796,5.13043 -0.40616,7.69351 -0.16821,2.56268 -0.36718,5.12308 -0.59691,7.68121 -0.22974,2.55818 -0.49231,5.11308 -0.78769,7.6647 -0.29129,2.5516 -0.61539,5.09931 -0.9723,7.64309 -0.35282,2.54388 -0.73847,5.08278 -1.15692,7.61674 -0.41845,2.53448 -0.86705,5.06338 -1.34582,7.58671 -0.47918,2.52341 -0.98933,5.04064 -1.53046,7.5517 -0.54111,2.51108 -1.113,5.01498 -1.71567,7.51173 -0.60266,2.49718 -1.23569,4.98658 -1.89907,7.46818 -0.66337,2.48123 -1.35709,4.95427 -2.08119,7.41911 -0.72411,2.46483 -1.47815,4.92025 -2.26213,7.36626 -0.7844,2.44644 -1.59855,4.88284 -2.44245,7.30921 -0.84349,2.42637 -1.71691,4.84205 -2.62028,7.24707 -0.90298,2.40509 -1.83527,4.79892 -2.79691,7.18148 -0.92675,2.2692 -1.8812,4.52674 -2.86335,6.7726 -0.98255,2.24587 -1.99238,4.47925 -3.02951,6.70014 -1.03752,2.2209 -2.10232,4.4287 -3.19443,6.62338 -1.09209,2.1947 -2.21105,4.37567 -3.35689,6.54296 -1.14544,2.16728 -2.31772,4.32021 -3.51689,6.45877 -1.19874,2.13863 -2.42397,4.26212 -3.67566,6.37046 -1.25127,2.10836 -2.52838,4.20093 -3.83134,6.27774 -1.30297,2.07682 -2.63158,4.13746 -3.98582,6.18193 -1.35383,2.04448 -2.73269,4.07195 -4.13657,6.08244 -1.40389,2.01013 -2.83237,4.00305 -4.2855,5.97876 -1.45312,1.97535 -2.93044,3.93244 -4.43196,5.87129 -1.50154,1.93887 -3.02685,3.85912 -4.57597,5.76075 -1.54869,1.90163 -3.12078,3.78404 -4.71625,5.64719 -1.59547,1.86273 -3.21351,3.70561 -4.8541,5.52866 -1.64101,1.82351 -3.30417,3.62632 -4.9895,5.40846 -1.68532,1.78245 -3.39238,3.54383 -5.12119,5.28418 -1.72879,1.74041 -3.47894,3.45911 -5.25042,5.1561 -1.77105,1.69736 -3.56283,3.37286 -5.37532,5.02649 -1.81291,1.6532 -3.64572,3.28386 -5.49843,4.89202 -1.8531,1.60859 -3.72568,3.19402 -5.61778,4.7563 -1.89167,1.56191 -3.80263,3.10071 -5.73285,4.61639 -1.92984,1.51524 -3.87813,3.00652 -5.84488,4.47383 -1.96717,1.46738 -3.95197,2.91039 -5.9544,4.32904 -2.00245,1.41869 -4.02212,2.81258 -6.05901,4.18168 -2.03691,1.36909 -4.09024,2.71284 -6.15995,4.03125 -2.07014,1.31879 -4.15628,2.61177 -6.2584,3.87894 -2.10172,1.26724 -4.21882,2.5085 -6.35132,3.72373 -2.13291,1.21562 -4.28015,2.40465 -6.44176,3.5671 -2.16204,1.16237 -4.33823,2.29819 -6.52858,3.40744 -2.18993,1.10877 -4.39318,2.19075 -6.60978,3.24597 -2.2166,1.05475 -4.4459,2.08213 -6.68794,3.08208 -2.24203,1.0004 -4.49616,1.97294 -6.76238,2.91759 -2.3159,0.98801 -4.64347,1.9474 -6.98272,2.87817 -2.33925,0.9312 -4.6898,1.83331 -7.05163,2.70633 -2.36182,0.87301 -4.73391,1.71681 -7.11624,2.53131 -2.38275,0.81496 -4.77492,1.60042 -7.17655,2.35639 -2.40203,0.75557 -4.81308,1.4817 -7.23316,2.17835 -2.41968,0.69665 -4.84775,1.36342 -7.28423,2.00033 -2.4365,0.63685 -4.88037,1.24362 -7.33162,1.82034 -2.45127,0.57672 -4.90952,1.12335 -7.37472,1.63987 -2.46479,0.51616 -4.93553,1.00281 -7.41222,1.45995 -2.47711,0.45435 -4.95934,0.878 -7.44671,1.27096 -2.48736,0.39703 -4.97923,0.76131 -7.47562,1.09284 -2.49639,0.33566 -4.99646,0.63854 -7.50023,0.90861 -2.50379,0.27016 -5.01063,0.51166 -7.52054,0.7245 -2.50951,0.20878 -5.02149,0.38683 -7.53594,0.53417 -2.51403,0.14734 -5.02969,0.26603 -7.54701,0.35606 -2.5169,0.086 -5.03461,0.14124 -7.55316,0.16582 -2.51855,0.0251 -5.03707,0.017 -7.55561,-0.0244 -2.51815,-0.0369 -5.03545,-0.10445 -7.55193,-0.20261 -2.51689,-0.0982 -5.03195,-0.22925 -7.54516,-0.39303 -2.51363,-0.15961 -5.02479,-0.34989 -7.53346,-0.57086 -2.5087,-0.22517 -5.01412,-0.47897 -7.51625,-0.76138 -2.50254,-0.28654 -5.00119,-0.60374 -7.49594,-0.9516 -2.49433,-0.34385 -4.98415,-0.72039 -7.46945,-1.12962 -2.48533,-0.40529 -4.9653,-0.84327 -7.43993,-1.31394 -2.47464,-0.46623 -4.94293,-0.96397 -7.40485,-1.4932 -2.46235,-0.52879 -4.9177,-1.08788 -7.36608,-1.6773 -2.44838,-0.58936 -4.88898,-1.20862 -7.3218,-1.85778 -2.43319,-0.6496 -4.85799,-1.32886 -7.27436,-2.03778 -2.41598,-0.70892 -4.82316,-1.44751 -7.22149,-2.2158 -2.39791,-0.76821 -4.786,-1.56598 -7.16424,-2.39325 -2.37823,-0.82679 -4.746,-1.68286 -7.10332,-2.56821 -2.3569,-0.88484 -4.70272,-1.7988 -7.03748,-2.74189 -2.29863,-0.9197 -4.58578,-1.86723 -6.86147,-2.8426 -2.27525,-0.97582 -4.53842,-1.97925 -6.78948,-3.0103 -2.25063,-1.03101 -4.48835,-2.08923 -6.71313,-3.17473 -2.22483,-1.08586 -4.43588,-2.19874 -6.63318,-3.33867 -2.19732,-1.13992 -4.38048,-2.30664 -6.54949,-3.50018 -2.16859,-1.19316 -4.32221,-2.41291 -6.46084,-3.65924 -2.13866,-1.24584 -4.26171,-2.51797 -6.36919,-3.81635 -2.10747,-1.29789 -4.19852,-2.62157 -6.27316,-3.97101 -2.07506,-1.34914 -4.1331,-2.7236 -6.1741,-4.12342 -2.041,-1.39979 -4.06459,-2.82416 -6.07071,-4.27309 -2.00574,-1.44936 -3.9936,-2.92305 -5.96363,-4.42108 -1.96963,-1.49767 -3.92059,-3.01947 -5.85287,-4.56544 -1.93229,-1.54557 -3.84531,-3.11466 -5.73903,-4.70722 -1.89372,-1.5922 -3.76755,-3.20755 -5.62149,-4.84604 -1.85432,-1.63836 -3.68795,-3.2993 -5.50086,-4.98284 -1.81332,-1.6831 -3.60551,-3.38825 -5.37656,-5.11546 -1.77147,-1.72727 -3.52121,-3.4758 -5.2492,-5.24563 -1.72839,-1.76981 -3.43462,-3.56073 -5.1187,-5.37277 -1.68409,-1.81161 -3.34563,-3.64369 -4.98458,-5.49621 -1.63896,-1.85244 -3.25494,-3.72459 -4.84795,-5.6164 -1.593,-1.89225 -3.16262,-3.80352 -4.70888,-5.73382 -1.54582,-1.93029 -3.06787,-3.87938 -4.5661,-5.84727 -1.49783,-1.96758 -2.97146,-3.95333 -4.42087,-5.95725 -1.44901,-2.00356 -2.87342,-4.02472 -4.27319,-6.06349 -1.39946,-2.03871 -2.77367,-4.09423 -4.12262,-6.16653 -1.34895,-2.07233 -2.6722,-4.16079 -3.969746,-6.26547 -1.29759,-2.10465 -2.5691,-4.22506 -3.81455,-6.36126 -1.245402,-2.13575 -2.464369,-4.28643 -3.656888,-6.45201 -1.192521,-2.16566 -2.358231,-4.34561 -3.497141,-6.53986 -1.138899,-2.19431 -2.250663,-4.40214 -3.335292,-6.62347 -1.08458,-2.22128 -2.141671,-4.45566 -3.171282,-6.70315 -1.02966,-2.24712 -2.031516,-4.50668 -3.005578,-6.7787 -0.977506,-2.35598 -1.92642,-4.72317 -2.846742,-7.10161 -0.920324,-2.37893 -1.811779,-4.76849 -2.674379,-7.16863 -0.862628,-2.40014 -1.696143,-4.81015 -2.500527,-7.23 -0.804383,-2.42017 -1.579408,-4.84978 -2.325074,-7.28884 -0.74573,-2.43869 -1.46187,-4.88594 -2.148424,-7.34177 -0.686553,-2.4562 -1.343366,-4.92019 -1.97044,-7.39198 -0.627068,-2.47184 -1.224189,-4.95081 -1.791364,-7.43692 -0.567137,-2.48612 -1.1042,-4.97879 -1.611187,-7.47804 -0.50695,-2.49875 -0.983646,-5.00347 -1.430083,-7.51417 -0.446432,-2.51069 -0.862507,-5.0263 -1.248227,-7.54682 -0.38568,-2.52045 -0.740857,-5.04523 -1.065532,-7.57432 -0.324716,-2.52909 -0.618827,-5.0617 -0.88233,-7.59778 -0.263502,-2.53605 -0.496341,-5.07495 -0.698517,-7.61675 -0.202174,-2.5418 -0.373619,-5.08562 -0.514329,-7.63146 -0.14076,-2.54593 -0.250729,-5.09325 -0.329911,-7.642 -0.07921,-2.5483 -0.127629,-5.09725 -0.145224,-7.64686 -0.01765,-2.54992 -0.0046,-5.09948 0.03947,-7.64865 0.04396,-2.54956 0.118706,-5.0981 0.224245,-7.64565 0.105513,-2.54748 0.241799,-5.09333 0.408856,-7.63757 0.16701,-2.54429 0.364731,-5.0863 0.593166,-7.62603 0.228468,-2.53929 0.487541,-5.07574 0.777221,-7.60932 0.28972,-2.53322 0.609984,-5.06254 0.960789,-7.58794 0.350805,-2.52583 0.732076,-5.04694 1.143811,-7.56333 0.411687,-2.5164 0.853713,-5.0275 1.326079,-7.53331 0.472359,-2.50577 0.974937,-5.00558 1.507731,-7.49945 0.532753,-2.4935 1.095539,-4.98044 1.688358,-7.46083 0.592814,-2.47998 1.215515,-4.95258 1.868103,-7.41783 0.652549,-2.46525 1.334779,-4.92231 2.04669,-7.37119 0.711953,-2.44888 1.45336,-4.88874 2.224232,-7.31961 0.770814,-2.43128 1.570908,-4.85273 2.400282,-7.26434 0.829363,-2.41163 1.687722,-4.81302 2.575056,-7.20418 0.887372,-2.39117 1.803484,-4.77127 2.748335,-7.14033 0.795765,-1.96589 1.612564,-3.92278 2.45038,-5.87066 0.837815,-1.94831 1.696449,-3.8874 2.575912,-5.81727 0.879502,-1.92985 1.779625,-3.85011 2.700342,-5.76076 0.920775,-1.91065 1.861956,-3.81124 2.823542,-5.70182 0.961596,-1.89058 1.943391,-3.77052 2.945395,-5.63981 1.001994,-1.86972 2.023979,-3.72838 3.065938,-5.57598 1.041908,-1.8476 2.103578,-3.68373 3.184998,-5.5084 1.0814,-1.82511 2.18227,-3.63835 3.302616,-5.4397 1.12037,-1.80135 2.25997,-3.59042 3.41881,-5.36719 1.1588,-1.77722 2.33661,-3.54175 3.53344,-5.29357 1.1967,-1.75182 2.41208,-3.49055 3.64613,-5.21618 1.23404,-1.72562 2.48654,-3.43797 3.75751,-5.13698 1.27095,-1.69903 2.55996,-3.38434 3.86701,-5.05594 1.30708,-1.67121 2.63199,-3.32849 3.97473,-4.97185 1.34276,-1.64294 2.70295,-3.27136 4.08057,-4.88525 1.37804,-1.61429 2.7731,-3.21345 4.18518,-4.79747 1.41211,-1.58401 2.84102,-3.15287 4.28677,-4.7066 1.44572,-1.5533 2.90806,-3.09127 4.38702,-4.61391 1.47854,-1.52219 2.97351,-3.02843 4.48489,-4.5187 1.51137,-1.49029 3.03853,-2.96421 4.58149,-4.42174 1.54294,-1.45795 3.10129,-2.8989 4.67503,-4.32287 1.5737,-1.42438 3.16262,-2.83177 4.76672,-4.22218 1.60408,-1.39043 3.22314,-2.76344 4.85716,-4.11905 1.63364,-1.35562 3.28164,-2.69365 4.94399,-4.01404 1.66232,-1.32043 3.33861,-2.62304 5.02885,-3.90785 1.69026,-1.2844 3.39425,-2.55079 5.11196,-3.79918 1.71772,-1.24797 3.44858,-2.47752 5.19256,-3.68865 1.74399,-1.21113 3.50069,-2.40342 5.27009,-3.57684 1.76984,-1.17353 3.55197,-2.328 5.34643,-3.4634 1.79445,-1.13538 3.60079,-2.25145 5.41904,-3.348229 1.81863,-1.09677 3.64875,-2.17396 5.49038,-3.23156 1.84163,-1.0576 3.69434,-2.095393 5.55811,-3.113385 z"
       id="path5-3-5-2"
       style="fill:#cccccc;fill-opacity:1;stroke:#000000;stroke-width:0.999895;stroke-dasharray:none"
       sodipodi:nodetypes="ccccccscsscsscscssscssssssssssscsscccssccscccccccsscscsccsccsscssccscssssccccccscccscccsccscsccssscssscsccccccsccsssccccscscccscccccccscssccccscsscccscscccccccscccscsscssscccscccsssssssssssssscccssscsscssccssscscsccsscccscssccscsccscscscc" />
  </g>
  <defs
     id="defs30">
    <linearGradient
       id="gradient_0"
       gradientUnits="userSpaceOnUse"
       x1="330.24478"
       y1="731.50134"
       x2="330.25449"
       y2="712.00165">
      <stop
         offset="0"
         stop-color="#C1C0C0"
         id="stop29" />
      <stop
         offset="1"
         stop-color="#EEEDEC"
         id="stop30" />
    </linearGradient>
  </defs>
  <defs
     id="defs33">
    <linearGradient
       id="gradient_1"
       gradientUnits="userSpaceOnUse"
       x1="834.49274"
       y1="695.1524"
       x2="814.75775"
       y2="665.4762">
      <stop
         offset="0"
         stop-color="#868685"
         id="stop32" />
      <stop
         offset="1"
         stop-color="#B4B3B3"
         id="stop33" />
    </linearGradient>
  </defs>
  <defs
     id="defs36">
    <linearGradient
       id="gradient_2"
       gradientUnits="userSpaceOnUse"
       x1="685.82385"
       y1="541.03693"
       x2="786.57617"
       y2="483.96054">
      <stop
         offset="0"
         stop-color="#737372"
         id="stop35" />
      <stop
         offset="1"
         stop-color="#A1A09B"
         id="stop36" />
    </linearGradient>
  </defs>
  <defs
     id="defs42">
    <linearGradient
       id="gradient_3"
       gradientUnits="userSpaceOnUse"
       x1="402.23676"
       y1="562.71912"
       x2="397.32678"
       y2="532.93524">
      <stop
         offset="0"
         stop-color="#CCC"
         id="stop41" />
      <stop
         offset="1"
         stop-color="#F6F0EC"
         id="stop42" />
    </linearGradient>
  </defs>
  <ellipse
     style="fill:#333333;fill-opacity:1;stroke:#000000;stroke-width:4.2;stroke-dasharray:none"
     id="path16"
     cx="255.14226"
     cy="364.82309"
     rx="152.2388"
     ry="58.746269" />
  <g
     inkscape:groupmode="layer"
     id="layer1"
     inkscape:label="base" />
  <g
     id="g10"
     inkscape:groupmode="layer"
     transform="matrix(1.3760076,0,0,1.2831069,-148.43735,-40.210641)"
     style="display:inline;stroke-width:2.66175;stroke-dasharray:none">
    <path
       fill="#ebebea"
       d="m 336.4655,108.09317 c 3.11767,-0.55097 9.64632,43.70059 13.11964,61.15372 l 17.27127,85.21568 c 3.8042,19.46006 7.86477,38.86661 12.1817,58.21965 1.0648,4.6826 3.88383,13.80766 3.10023,18.17936 -0.28437,1.58866 -1.07744,2.85189 -1.92296,4.19411 -7.36323,2.96121 -16.0529,4.1088 -23.77191,6.10191 -4.59602,1.18676 -9.35634,3.12616 -14.00608,3.85918 -3.08697,0.48596 -6.81662,-0.59654 -9.93266,-0.94851 -3.52996,-0.42888 -7.07213,-0.59823 -10.62652,-0.50807 -2.96964,0.0665 -5.92917,0.27741 -8.87859,0.63255 -2.94944,0.35514 -5.87442,0.8531 -8.77497,1.49389 -4.48734,1.03698 -9.11116,2.69138 -13.71288,3.06927 -3.76187,0.30902 -7.42516,-1.71189 -11.15228,-2.06451 -10.69603,-1.01299 -16.48704,1.74602 -27.76759,-1.75803 -5.07314,-1.48061 -9.45357,-2.17321 -14.70553,-2.63705 -2.06763,-15.87915 -5.20131,-30.18785 -8.35906,-43.21483 l -22.48026,-104.6525 -7.29631,-33.92226 c -1.57349,-7.06372 -3.40863,-13.1415 -4.33945,-20.32401 -0.2541,-0.99088 0.11052,-2.86783 0.6325,-3.5402 0.9283,-1.19372 19.77369,-4.73504 27.04269,-6.56956 l 45.86227,-9.17308 c 8.15148,-1.51722 63.50251,-11.92058 68.51675,-12.80671 z"
       id="path45"
       style="stroke:#000000;stroke-width:4.23881;stroke-dasharray:none"
       sodipodi:nodetypes="scccccscccscsccccccccccs" />
    <path
       fill="#f00000"
       d="m 220.80764,167.44162 c -2.94439,-1.27569 -12.00222,-14.54433 -13.21056,-17.81375 -0.57132,-1.54569 -0.40777,-3.30144 0.33518,-4.77306 0.63391,-1.25473 1.88692,-2.71756 3.32553,-3.0035 2.27091,0.0364 4.30687,2.27684 5.97922,3.80329 0.60627,-1.74233 0.92834,-4.04261 3.14815,-6.03748 0.75481,-0.37825 1.60638,-0.80892 2.37413,-0.52221 1.73185,0.64505 3.18252,2.25213 3.8611,3.93591 1.50666,3.73872 1.65016,19.17562 -0.32651,22.54834 -0.78564,1.34122 -1.39056,1.75066 -2.46662,2.26802 -0.87255,0.41951 -1.94909,0.11289 -3.01962,-0.40555 z"
       id="path50-3"
       style="fill:#d40000;stroke-width:2.3909;stroke-dasharray:none"
       sodipodi:nodetypes="cccccccscscc" />
    <path
       fill="#f00000"
       d="m 358.62239,303.10489 c 2.99273,1.15984 12.5812,14.06927 13.92163,17.29035 0.63377,1.52281 0.54221,3.28446 -0.1396,4.78476 -0.5818,1.27923 -1.77336,2.79078 -3.1984,3.13305 -2.26942,0.0527 -4.39432,-2.10725 -6.1269,-3.56765 -0.53424,1.76556 -0.76185,4.0778 -2.89722,6.15914 -0.73835,0.40773 -1.57119,0.87167 -2.34966,0.61516 -1.75597,-0.57695 -3.27044,-2.12665 -4.01698,-3.78331 -1.65755,-3.67852 -2.43197,-19.10519 -0.59576,-22.55442 0.72978,-1.37164 1.31715,-1.80467 2.37067,-2.36409 0.85425,-0.45361 1.94192,-0.18929 3.03222,0.287 z"
       id="path50-3-9"
       style="display:inline;fill:#d40000;stroke-width:2.3909;stroke-dasharray:none"
       sodipodi:nodetypes="cccccccscscc" />
    <path
       style="fill:#aa0000;stroke-width:2.3909;stroke-dasharray:none"
       id="path9"
       d="m 238.32438,139.31327 c 2.69913,11.38059 6.49195,22.46674 9.8373,33.68322 1.48577,5.19016 2.86519,10.38911 4.12436,15.60915 1.9732,8.48448 3.65029,17.00154 5.53978,25.49494 1.66927,8.10593 2.9118,16.24659 4.0809,24.39465 0.83644,5.98175 1.96121,11.9365 3.08238,17.8933 1.4768,6.17868 2.81667,12.37141 3.84506,18.59597 0.73609,4.77183 1.56177,9.53455 2.47864,14.29049 0.842,4.53553 1.61581,9.07779 2.24238,13.63097 0.87505,7.1552 0.632,5.74324 1.74571,13.94083 0,0 21.56087,8.31554 21.44872,7.35718 -2.8466,-4.04902 -3.09993,-5.88546 -3.43405,-7.26275 -0.57819,-2.49144 -1.57407,-7.71963 -1.55242,-7.73642 -0.85485,-6.03807 -1.43603,-8.92579 -2.11388,-13.52057 -0.89823,-4.79908 -1.69706,-9.60702 -2.7902,-14.38771 -1.19765,-6.1903 -2.50719,-12.36896 -3.68795,-18.56093 -1.24039,-6.01007 -2.52926,-12.0143 -3.6091,-18.04063 -1.50555,-8.19435 -2.64347,-16.42241 -4.48407,-24.5855 -1.67085,-8.44621 -3.92436,-16.68911 -5.41463,-25.15304 -2.31938,-10.12046 -3.46743,-13.5666 -5.99785,-23.84081 -1.03307,-2.94818 -2.16384,-9.12753 -3.14028,-12.08564 -0.86586,-2.75494 -2.73566,-2.47193 -3.42841,-5.25071 z"
       sodipodi:nodetypes="ccccccccccccccccccccccc" />
    <path
       style="fill:#d40000;stroke-width:2.3909;stroke-dasharray:none"
       id="path8"
       d="m 254.08982,153.87308 c 3.76079,2.81002 13.07197,9.07157 -9.97095,-8.20894 -6.20804,-4.65546 7.50609,7.07112 9.30636,8.88232 1.95013,1.96655 3.78717,4.1137 5.60108,6.28941 2.48354,3.00153 4.83951,6.16805 7.13232,9.41664 2.20996,3.07334 4.26942,6.30908 6.24972,9.63736 1.76495,3.02248 3.4928,6.08376 5.17207,9.18907 0.98807,1.71641 1.88718,3.51657 2.80569,5.29717 1.10043,2.12248 2.05618,4.3641 3.09939,6.5345 1.54159,3.2977 2.90968,6.73444 4.33071,10.12487 1.37362,3.24608 2.51801,6.64077 3.72934,9.99171 1.12239,3.26057 2.21535,6.53898 3.19761,9.87657 0.79306,2.90337 1.63739,5.7823 2.50499,8.64874 0.86378,2.53674 1.72115,5.07388 2.47904,7.66851 1.0809,3.30032 2.06521,6.65248 3.16638,9.94157 1.61559,4.85687 3.07185,9.80507 4.82773,14.57933 1.42006,3.79118 3.02465,7.45187 4.72212,11.03947 1.07255,2.26044 2.23835,4.44477 3.46102,6.56997 1.06756,1.80064 2.27614,3.44248 3.37265,5.2123 12.01327,12.49214 24.36261,21.87675 23.03221,19.49631 -0.17326,-0.24739 -0.41286,-0.39849 -0.62616,-0.5847 -0.8519,-0.7437 -1.751,-1.39955 -2.62738,-2.09168 -1.99843,-1.70764 -3.93521,-3.53299 -5.867,-5.36588 -1.69293,-1.59504 -3.40612,-3.14513 -5.17322,-4.59609 -37.72479,-28.47183 -1.76627,-1.36149 -2.63983,-2.03103 -11.31976,-8.67611 -27.89614,-20.53496 -6.9645,-4.8703 0.36948,0.27697 -0.73504,-0.5629 -1.10009,-0.84983 -0.35587,-0.27974 -0.70346,-0.57759 -1.06259,-0.85011 -7.85485,-6.4283 -23.30569,-18.37503 -32.33079,-23.04301 -17.80278,-9.04851 -21.33471,-9.49404 -27.00695,-12.28768 -5.3209,-2.15562 -15.07878,-4.54177 -17.44075,-5.7548 -1.65153,-1.09613 -3.45693,-1.82738 -5.07186,-3.00539 -1.06021,-0.44769 -1.93737,-1.34779 -2.98352,-1.82201 -0.49966,-0.61955 -1.19793,-0.77168 -1.78762,-1.16161 -0.56741,-0.51216 -0.27286,-0.28586 -0.88264,-0.68106 -0.63382,-0.25028 -1.18732,-0.71543 -1.80631,-1.01778 -0.58001,-0.28334 -3.97301,0.55248 -4.4165,-0.0204 6.89808,5.09736 18.19837,10.6688 22.42471,9.24167 3.99805,-1.11651 7.98271,-2.32007 11.95912,-3.56565 4.13255,-1.16388 8.21415,-2.57028 12.28123,-4.07583 3.70136,-1.42246 7.45316,-2.59543 11.12834,-4.13374 4.79209,-1.9767 9.62675,-3.77132 14.46571,-5.53927 5.60126,-1.89728 11.17656,-3.92168 16.78815,-5.76686 3.87282,-1.31267 7.71684,-2.74341 11.54814,-4.24893 3.81979,-1.53634 7.58401,-3.29724 11.37264,-4.95804 3.31806,-1.62179 6.67821,-3.09142 9.90707,-5.00411 1.85447,-0.99263 3.38804,-2.00743 4.30132,-4.41515 0.36517,-1.59018 0.60556,-3.22619 0.69806,-4.8813 0.0966,-1.73313 0.0303,-3.49651 -0.26819,-5.19204 l -13.34753,-8.3965 c -0.3624,-0.25292 -6.79349,-4.28177 -6.71045,-3.84056 0.20348,1.0812 7.13914,7.27058 7.1874,8.87949 0.23664,1.75973 -0.003,2.7581 -0.43262,3.94891 -0.77342,1.73695 -2.18434,2.59698 -3.4401,3.4815 -3.13689,1.9458 -6.45318,3.34535 -9.6983,4.9449 -3.7838,1.69167 -7.51767,3.60827 -11.40967,4.85248 -3.74138,1.49643 -7.45577,3.10882 -11.23484,4.44047 -5.54009,1.94788 -11.02668,4.1473 -16.59795,5.94372 -4.97073,1.60417 -9.92571,3.27287 -14.81261,5.27767 -3.72942,1.24827 -7.42274,2.66378 -11.1014,4.14757 -4.06645,1.49506 -8.1891,2.68905 -12.29618,3.9734 -3.99352,1.2542 -7.93394,2.21527 -12.07343,3.23916 -2.0649,0.53478 -5.09456,1.57964 -7.16524,1.63466 -1.23379,0.0989 0.30755,0.10606 -0.83813,0.45943 -0.24791,0.0764 -1.15447,0.61268 -0.98066,0.7617 20.34621,15.16829 43.9332,25.75974 66.15662,38.05173 19.97682,13.07085 20.01181,18.09555 52.43131,31.33974 -0.29046,-0.1469 -0.14262,-0.0181 -0.36488,-0.50833 -4.31783,-3.37259 -8.64648,-6.72521 -13.04381,-9.91693 -4.1582,-3.01818 8.21798,6.26313 12.32635,9.39617 0.25298,0.19293 -1.08705,-0.77028 -0.70173,-0.69171 -0.93144,-0.58657 -1.65337,-1.5811 -2.45046,-2.41903 -1.2346,-1.11817 -2.14336,-2.60795 -3.10432,-4.09535 -0.82444,-1.48233 -1.77043,-2.81889 -2.65779,-4.23049 -1.01503,-1.85727 -2.2016,-3.51858 -3.35407,-5.2281 -1.30241,-2.10733 -2.57222,-4.24806 -3.72079,-6.50644 -1.75338,-3.59826 -3.54532,-7.16197 -4.99596,-10.99467 -1.83575,-4.67372 -3.35039,-9.54566 -4.81062,-14.43835 -0.99697,-3.24823 -1.83004,-6.58464 -2.95151,-9.7631 -0.79254,-2.56621 -1.4289,-5.22073 -2.40364,-7.68639 -0.99673,-2.82452 -1.82454,-5.7542 -2.67951,-8.6555 -0.93308,-3.36795 -2.0323,-6.64401 -3.0877,-9.94743 -1.14661,-3.50035 -2.57571,-6.83724 -3.89463,-10.22982 -1.34021,-3.37099 -2.68477,-6.74132 -4.03936,-10.09975 -1.02894,-2.14906 -2.04426,-4.30408 -2.95346,-6.54294 -0.97605,-1.80596 -1.87933,-3.67943 -2.89865,-5.44435 -1.87451,-3.01833 -3.58462,-6.21425 -5.37491,-9.31866 -1.96636,-3.36296 -3.95425,-6.70007 -6.17547,-9.78273 -2.31261,-3.23895 -4.6233,-6.47834 -7.08855,-9.52195 -1.72105,-2.21354 -3.48805,-4.35457 -5.33859,-6.38099 -1.77529,-1.71917 -3.46564,-3.58402 -5.34815,-5.10678 -6.12566,-5.1847 -12.37846,-10.16447 -18.89019,-14.4728 -2.14121,-1.29068 -4.36655,-3.47027 -6.46611,-4.87493 5.90021,8.18868 10.22507,11.75073 17.79422,16.70761 z"
       sodipodi:nodetypes="cscccccccccccccccccsscccsssscccccccsccccccccccccccsccccccccccccsccccsscccccccccccccccccccccccc" />
  </g>
</svg>
